<svg xmlns="http://www.w3.org/2000/svg" viewBox="0 0 104 43" width="104" height="43" role="img" aria-label="TWITCH"><title>TWITCH</title><style>
  .blink { animation: blink 1s steps(1) infinite; }
  @keyframes blink { 50% { opacity: 0; } }
  .pulse { animation: pulse 1.6s ease-in-out infinite; }
  @keyframes pulse { 50% { opacity: .25; } }
  @media (prefers-reduced-motion: reduce) { .blink, .pulse, .ticker { animation: none; } }
</style><rect x="5" y="5" width="99" height="38" fill="#fbd535"/><rect x="0" y="0" width="99" height="38" fill="#fff4ec"/><rect x="1.5" y="1.5" width="96" height="35" fill="none" stroke="#14160d" stroke-width="3"/><svg x="12" y="11" width="16" height="16" viewBox="0 0 24 24" preserveAspectRatio="xMidYMid meet" fill="#14160d"><path d="M11.571 4.714h1.715v5.143H11.57zm4.715 0H18v5.143h-1.714zM6 0L1.714 4.286v15.428h5.143V24l4.286-4.286h3.428L22.286 12V0zm14.571 11.143l-3.428 3.428h-3.429l-3 3v-3H6.857V1.714h13.714Z"/></svg><path d="M41.4 23.3L39.8 23.3L39.8 15.9L37.6 15.9L37.6 14.6L43.6 14.6L43.6 15.9L41.4 15.9L41.4 23.3ZM47.9 23.3L46.3 23.3L45.4 14.6L46.6 14.6L47.2 20.7Q47.2 21.0 47.2 21.5Q47.3 22.0 47.3 22.3L47.3 22.3Q47.3 22.0 47.3 21.5Q47.4 21.0 47.4 20.7L47.4 20.7L48.2 14.6L49.5 14.6L50.2 20.7Q50.2 21.0 50.3 21.5Q50.3 22.0 50.4 22.3L50.4 22.3Q50.4 22.0 50.4 21.5Q50.4 21.0 50.5 20.7L50.5 20.7L51.0 14.6L52.2 14.6L51.3 23.3L49.6 23.3L48.9 17.2Q48.9 16.8 48.9 16.3Q48.8 15.8 48.8 15.5L48.8 15.5Q48.8 15.8 48.8 16.3Q48.7 16.8 48.7 17.2L48.7 17.2L47.9 23.3ZM59.5 23.3L54.5 23.3L54.5 22.0L56.2 22.0L56.2 15.9L54.5 15.9L54.5 14.6L59.5 14.6L59.5 15.9L57.8 15.9L57.8 22.0L59.5 22.0L59.5 23.3ZM66.0 23.3L64.4 23.3L64.4 15.9L62.2 15.9L62.2 14.6L68.2 14.6L68.2 15.9L66.0 15.9L66.0 23.3ZM73.5 23.4L73.5 23.4Q72.6 23.4 72.0 23.1Q71.4 22.8 71.1 22.2Q70.7 21.6 70.7 20.8L70.7 20.8L70.7 17.0Q70.7 16.2 71.1 15.7Q71.4 15.1 72.0 14.8Q72.6 14.4 73.5 14.4L73.5 14.4Q74.3 14.4 75.0 14.8Q75.6 15.1 75.9 15.7Q76.3 16.2 76.3 17.0L76.3 17.0L74.8 17.0Q74.8 16.4 74.4 16.1Q74.1 15.8 73.5 15.8L73.5 15.8Q72.9 15.8 72.5 16.1Q72.2 16.4 72.2 17.0L72.2 17.0L72.2 20.8Q72.2 21.5 72.5 21.8Q72.9 22.1 73.5 22.1L73.5 22.1Q74.1 22.1 74.4 21.8Q74.8 21.5 74.8 20.8L74.8 20.8L76.3 20.8Q76.3 21.6 75.9 22.2Q75.6 22.8 75.0 23.1Q74.3 23.4 73.5 23.4ZM80.4 23.3L78.9 23.3L78.9 14.6L80.4 14.6L80.4 18.1L82.8 18.1L82.8 14.6L84.3 14.6L84.3 23.3L82.8 23.3L82.8 19.5L80.4 19.5L80.4 23.3Z" fill="#14160d"/></svg>
